<?xml version="1.0" encoding="utf-8"?>
<!-- Generator: Adobe Illustrator 21.0.0, SVG Export Plug-In . SVG Version: 6.00 Build 0)  -->
<svg version="1.1" id="Layer_1" xmlns="http://www.w3.org/2000/svg" xmlns:xlink="http://www.w3.org/1999/xlink" x="0px" y="0px"
	 viewBox="0 0 300.8 151" style="enable-background:new 0 0 300.8 151;" xml:space="preserve">
<style type="text/css">
	.st0{fill:none;stroke:#000000;stroke-width:4;stroke-linecap:round;stroke-miterlimit:10;}
	.st1{fill:none;stroke:#000000;stroke-width:4;stroke-linecap:round;}
</style>
<g>
	<path d="M144.3,109.9c-2-0.4-3.9-0.7-5.9-1.3c-9-2.7-16.2-8.1-22.5-15c-4.4-4.9-8.2-10.2-10.2-16.6c-0.5-1.6-0.8-3.4-0.8-5.1
		c-0.1-7,0-14,0-21c0-6,5.3-11.3,11.4-11.3c2,0,4,0,6.2,0c0-0.6,0-1.1,0-1.5c0-6.6,0-13.3,0-19.9c0-5.4,4.1-10.3,9.4-11.4
		c2.4-0.5,4.6,0.2,6.7,1.4c0.5,0.3,1,0.6,1.5,1c2-5.4,5.5-9.4,11.6-9c5.4,0.3,8.5,4,10.2,9.1c4-3,8.1-3.6,12.4-0.7
		c4.1,2.7,5.7,6.6,5.2,11.6c0.8-0.5,1.4-0.9,2-1.2c3.2-1.8,6.5-1.8,9.7,0.1c3.9,2.4,6.1,5.8,6.1,10.5c-0.1,15.4-0.1,30.9,0,46.3
		c0.1,8.8-3,16.1-8.9,22.4c-5.8,6.2-12.7,10.4-21.3,11.5c-0.2,0-0.4,0.1-0.6,0.2C159.1,109.9,151.7,109.9,144.3,109.9z M122.6,43.9
		c-2.1,0-4.1,0-6,0c-4.6,0-7.2,2.6-7.2,7.2c0,6.7,0,13.5,0,20.2c0,2.7,0.5,5.2,1.6,7.6c3.7,8,9.3,14.4,16.4,19.6
		c6.5,4.8,13.7,7.5,21.9,7.1c4.6-0.2,9.2-0.1,13.8,0c8.1,0.2,15-2.8,20.9-8.3c5.5-5.2,9.1-11.5,9.1-19.2c0.1-16.4,0-32.8,0-49.2
		c0-4.1-2.8-7-6.7-6.9c-3.7,0-6.5,3-6.5,6.9c0,3.7,0,7.4,0,11.1c0,3.5,0,7,0,10.5c0,1.3-0.9,2.2-2.1,2.3c-1.2,0-2.2-0.9-2.3-2.3
		c0-0.3,0-0.5,0-0.8c0-10.6,0-21.3,0-31.9c0-1.3-0.4-2.7-1-3.8c-1.3-2.5-4.4-3.6-7.3-2.8c-2.9,0.8-4.9,3.2-4.9,6.2c0,6,0,12,0,18
		c0,2.8,0,5.5,0,8.3c0,1.5-0.9,2.5-2.1,2.5c-1.3,0-2.2-0.9-2.2-2.4c0-0.3,0-0.6,0-1c0-10.5,0-21,0-31.5c0-2.3-0.8-4.1-2.6-5.5
		c-2.2-1.6-4.6-1.9-7-0.7c-2.5,1.2-3.7,3.3-3.7,6.1c0,10.3,0,20.6,0,30.9c0,0.7,0,1.4,0,2.1c-0.1,1.2-1.1,2.1-2.2,2
		c-1.2-0.1-1.9-0.8-2.1-2c-0.1-0.4,0-0.7,0-1.1c0-8.5,0-17,0-25.4c0-4.1-3.3-7-7.3-6.6c-3.5,0.3-5.9,3.1-5.9,6.9
		c0,15.7,0,31.4,0,47.2c0,0.4,0,0.7,0,1.1c-0.1,1.2-1.1,2.1-2.2,2c-1.2-0.1-1.9-0.8-2.1-2c-0.1-0.5,0-1.1,0-1.6
		C122.6,57.7,122.6,50.9,122.6,43.9z"/>
</g>
<polyline class="st0" points="276.9,74.9 298.7,62.1 276.9,49.4 "/>
<line class="st1" x1="297.4" y1="62.1" x2="217" y2="62.1"/>
<g>
	<polyline class="st0" points="21.7,49.4 0,62.1 21.7,74.9 	"/>
	<line class="st1" x1="1.2" y1="62.1" x2="81.7" y2="62.1"/>
</g>
<g>
	<path d="M1.5,137.6h2.7l6.3,8.3v-8.3h2.9V151h-2.5l-6.5-8.5v8.5H1.5V137.6z"/>
	<path d="M23.9,137.5h2.7l5.7,13.5h-3.1l-1.2-3h-5.7l-1.2,3h-3L23.9,137.5z M27.1,145.4l-1.8-4.4l-1.8,4.4H27.1z"/>
	<path d="M34.1,137.6h3.3l3.5,9.4l3.5-9.4h3.2l-5.4,13.5h-2.6L34.1,137.6z"/>
	<path d="M52.4,137.6h3V151h-3V137.6z"/>
	<path d="M60.8,144.4L60.8,144.4c0-3.9,3-7,7-7c2.4,0,3.9,0.7,5.3,1.8l-1.9,2.2c-1-0.9-2-1.4-3.5-1.4c-2.1,0-3.9,1.9-3.9,4.2v0
		c0,2.5,1.7,4.3,4.1,4.3c1.1,0,2-0.3,2.8-0.8v-1.9h-3v-2.5h5.8v5.8c-1.4,1.2-3.3,2.1-5.7,2.1C63.7,151.3,60.8,148.3,60.8,144.4z"/>
	<path d="M83.7,137.5h2.7l5.8,13.5h-3.1l-1.2-3h-5.7l-1.2,3h-3L83.7,137.5z M86.8,145.4l-1.8-4.4l-1.8,4.4H86.8z"/>
	<path d="M98.4,140.3h-4.1v-2.7h11.1v2.7h-4.1V151h-3V140.3z"/>
	<path d="M110.3,137.6h10.1v2.6h-7.2v2.7h6.3v2.6h-6.3v2.8h7.3v2.6h-10.2V137.6z"/>
	<path d="M134.3,137.6h6.2c1.5,0,2.7,0.4,3.5,1.2c0.6,0.6,0.9,1.4,0.9,2.3v0c0,1.5-0.8,2.4-1.8,2.9c1.6,0.6,2.5,1.5,2.5,3.3v0
		c0,2.5-2,3.7-5,3.7h-6.4V137.6z M139.9,143c1.3,0,2.1-0.4,2.1-1.4v0c0-0.9-0.7-1.4-1.9-1.4h-2.9v2.8H139.9z M140.7,148.4
		c1.3,0,2.1-0.5,2.1-1.5v0c0-0.9-0.7-1.5-2.2-1.5h-3.4v3H140.7z"/>
	<path d="M154,145.7l-5.2-8.1h3.4l3.2,5.4l3.3-5.4h3.4l-5.2,8.1v5.3h-3V145.7z"/>
	<path d="M175.1,137.6h5.2c4.2,0,7.1,2.9,7.1,6.7v0c0,3.8-2.9,6.7-7.1,6.7h-5.2V137.6z M180.3,148.4c2.4,0,4-1.6,4-4v0
		c0-2.4-1.6-4-4-4H178v8.1H180.3z"/>
	<path d="M192.8,137.6h6.1c1.7,0,3,0.5,3.9,1.4c0.7,0.7,1.1,1.8,1.1,3.1v0c0,2.2-1.2,3.5-2.9,4.2l3.3,4.8h-3.5l-2.9-4.3h-2.3v4.3h-3
		V137.6z M198.7,144.1c1.4,0,2.3-0.8,2.3-1.9v0c0-1.3-0.9-1.9-2.3-1.9h-2.9v3.9H198.7z"/>
	<path d="M213.9,137.5h2.7l5.8,13.5h-3.1l-1.2-3h-5.7l-1.2,3h-3L213.9,137.5z M217,145.4l-1.8-4.4l-1.8,4.4H217z"/>
	<path d="M225.7,144.4L225.7,144.4c0-3.9,3-7,7-7c2.4,0,3.9,0.7,5.3,1.8l-1.9,2.2c-1-0.9-2-1.4-3.5-1.4c-2.1,0-3.9,1.9-3.9,4.2v0
		c0,2.5,1.7,4.3,4.1,4.3c1.1,0,2-0.3,2.8-0.8v-1.9h-3v-2.5h5.8v5.8c-1.4,1.2-3.3,2.1-5.7,2.1C228.5,151.3,225.7,148.3,225.7,144.4z"
		/>
	<path d="M243.4,144.4L243.4,144.4c0-3.9,3-7,7-7c2.4,0,3.9,0.7,5.3,1.8l-1.9,2.2c-1-0.9-2-1.4-3.5-1.4c-2.1,0-3.9,1.9-3.9,4.2v0
		c0,2.5,1.7,4.3,4.1,4.3c1.1,0,2-0.3,2.8-0.8v-1.9h-3v-2.5h5.8v5.8c-1.4,1.2-3.3,2.1-5.7,2.1C246.2,151.3,243.4,148.3,243.4,144.4z"
		/>
	<path d="M261.8,137.6h3V151h-3V137.6z"/>
	<path d="M270.8,137.6h2.7l6.3,8.3v-8.3h2.9V151h-2.5l-6.5-8.5v8.5h-2.9V137.6z"/>
	<path d="M288,144.4L288,144.4c0-3.9,3-7,7-7c2.4,0,3.9,0.7,5.3,1.8l-1.9,2.2c-1-0.9-2-1.4-3.5-1.4c-2.1,0-3.9,1.9-3.9,4.2v0
		c0,2.5,1.7,4.3,4.1,4.3c1.1,0,2-0.3,2.8-0.8v-1.9h-3v-2.5h5.8v5.8c-1.4,1.2-3.3,2.1-5.7,2.1C290.9,151.3,288,148.3,288,144.4z"/>
</g>
</svg>
